inDegrees=no
num_controls=7
num_derivatives=13
num_iterations=109
num_multipliers=7
num_parameters=0
num_slacks=7
num_states=26
objective=6.095140
objective_accelerations=0.660090
objective_balance=0.029806
objective_effort=0.627490
objective_height=4.660101
objective_ligament=0.117653
solver_duration=1231.229330
status=Solve_Succeeded
success=true
DataType=double
version=3
OpenSimVersion=4.4-2022-07-23-0e9fedc
endheader
time	/jointset/ground_pelvis/pelvis_tilt/value	/jointset/ground_pelvis/pelvis_tx/value	/jointset/ground_pelvis/pelvis_ty/value	/jointset/hip_l/hip_flexion_l/value	/jointset/hip_l/hip_adduction_l/value	/jointset/hip_l/hip_rotation_l/value	/jointset/back/lumbar_extension/value	/jointset/patellofemoral_l/patellar_flexion_l/value	/jointset/knee_l/knee_flexion_l/value	/jointset/knee_l/knee_adduction_l/value	/jointset/knee_l/knee_rotation_l/value	/jointset/ankle_l/ankle_angle_l/value	/jointset/subtalar_l/subtalar_angle_l/value	/jointset/ground_pelvis/pelvis_tilt/speed	/jointset/ground_pelvis/pelvis_tx/speed	/jointset/ground_pelvis/pelvis_ty/speed	/jointset/hip_l/hip_flexion_l/speed	/jointset/hip_l/hip_adduction_l/speed	/jointset/hip_l/hip_rotation_l/speed	/jointset/back/lumbar_extension/speed	/jointset/patellofemoral_l/patellar_flexion_l/speed	/jointset/knee_l/knee_flexion_l/speed	/jointset/knee_l/knee_adduction_l/speed	/jointset/knee_l/knee_rotation_l/speed	/jointset/ankle_l/ankle_angle_l/speed	/jointset/subtalar_l/subtalar_angle_l/speed	/forceset/tau_hip_flexion_l	/forceset/tau_hip_adduction_l	/forceset/tau_hip_rotation_l	/forceset/tau_knee_flexion_l	/forceset/tau_ankle_angle_l	/forceset/tau_subtalar_angle_l	/forceset/tau_lumbar_extension	lambda_cid13_p0	lambda_cid13_p1	lambda_cid13_p2	lambda_cid13_p3	lambda_cid13_p4	lambda_cid13_p5	lambda_cid14_p0	/jointset/ground_pelvis/pelvis_tilt/accel	/jointset/ground_pelvis/pelvis_tx/accel	/jointset/ground_pelvis/pelvis_ty/accel	/jointset/hip_l/hip_flexion_l/accel	/jointset/hip_l/hip_adduction_l/accel	/jointset/hip_l/hip_rotation_l/accel	/jointset/back/lumbar_extension/accel	/jointset/patellofemoral_l/patellar_flexion_l/accel	/jointset/knee_l/knee_flexion_l/accel	/jointset/knee_l/knee_adduction_l/accel	/jointset/knee_l/knee_rotation_l/accel	/jointset/ankle_l/ankle_angle_l/accel	/jointset/subtalar_l/subtalar_angle_l/accel	gamma_cid13_p0	gamma_cid13_p1	gamma_cid13_p2	gamma_cid13_p3	gamma_cid13_p4	gamma_cid13_p5	gamma_cid14_p0
0	-0.03651182742993705	0.05654212893285924	0.9203471044630913	0.3085811930696054	-0.2955527485383611	-0.2996614209819267	-0.3879500408040475	0.2499276582270175	0.249927658227084	-0.1745326874660808	-0.1726242315390929	-0.0008036543073733089	0.0005035630401436423	0	0	0	0	0	0	0	0	0	0	0	0	0	0.08031091606292939	-0.0132484603853141	-0.01639620307887824	-0.2131060088193143	0.1218881077971787	-0.03331084993423293	-0.01605838457626446	-4.972224837774299	12.06602076475437	1.358858023177135	44.7522928247851	-608.0887852229628	-51.62080839410944	-23.13233832312252	-2.375413350316789	-3.07619433867971	-1.172346882079786	12.2166677135523	-0.7565764792688099	3.161086747330227	-8.136992051207651	9.42487478073034	9.4248747807366	1.439149928765805	-0.2628257581817794	0.06250564901542945	-0.801409299559685	3.611931705434851e-08	1.75598618932002e-07	5.088748888029469e-08	-5.124285953631699e-08	2.951428342124823e-07	8.279018323605445e-08	2.853275082631685e-09
0.01	-0.0366253651869669	0.05639157876142296	0.9202898887149245	0.3091761233363846	-0.2955905906892105	-0.2995032075467144	-0.3883529918861081	0.2503890676464858	0.2503890676466252	-0.1744641885764132	-0.1726341217994235	-0.0008001930782351111	0.0004635932052662036	-0.02260151364978979	-0.02980706757578596	-0.01138005066147236	0.1182012935540766	-0.007490746505851684	0.03147674662257699	-0.07975423968073324	0.09179008182125661	0.09179008182127202	0.01368924369840157	-0.001936864009104566	0.0008841849738460767	-0.007845068340784153	0.07395123984952104	-0.03116503248952757	-0.01594783065891565	-0.2120259883811585	0.1195043309976686	-0.01401566590680172	-0.008745609706447117	-5.137827125022333	3.909708131091446	2.436929350820408	40.89137275757586	-612.4436743218087	-68.19718521713749	-23.13797601362817	-2.186626461288041	-2.887528203910835	-1.111310283850077	11.50414046395725	-0.7337013949244787	3.116076605775632	-7.76924342087298	8.982303999633318	8.982303999631727	1.332261938550242	-0.1529339259264539	0.1301743346252321	-0.7537554793132599	5.163215362101334e-11	1.827074734948711e-07	1.066439942134478e-07	-4.54302376181463e-09	1.030610904021597e-07	3.772272005470036e-08	9.244733810372708e-11
0.02	-0.03696173929819356	0.05595204486685697	0.9201207772350088	0.3109295225961894	-0.2957010158368465	-0.2990352050480464	-0.3895284060638449	0.2517536237075727	0.2517536237075628	-0.1742591071798204	-0.1726621441404783	-0.0007821301167417261	0.0003496327113860295	-0.04456727085903296	-0.05779674462594142	-0.02237914634972235	0.2316937986130534	-0.0145165993589136	0.06195781268736961	-0.1544926191364257	0.1806293283148958	0.1806293283148951	0.02731650132371645	-0.003626416164235081	0.002920346469950639	-0.01479813180058165	0.0675915636352082	-0.04908160459382659	-0.01549945823961978	-0.2109459679434397	0.1171205541979625	0.00527951812048247	-0.001432834837158612	-5.229301418303879	-4.257355480697921	3.514168208449989	37.00596216587945	-615.6227687492642	-84.68629387330711	-23.15445674358584	-2.248262062209692	-2.712716233551834	-1.096155887435323	11.27491001453225	-0.6635977487111729	2.961950635773601	-7.133820006200973	8.834707715206491	8.834707715206466	1.426752714147751	-0.213363387386693	0.2929009534689795	-0.6230083233620357	-3.601605274710648e-08	1.898163280577402e-07	1.62400499546601e-07	4.215681201268773e-08	-8.902065340816297e-08	-7.344743126653738e-09	-2.668380406424231e-09
0.03	-0.03751518139002862	0.05524058066722549	0.9198429935188838	0.3137971224603495	-0.2958798747378644	-0.2982669779119246	-0.391429760380069	0.2539930650265845	0.2539930650267206	-0.1739189845721144	-0.1727060201006727	-0.0007391963073259663	0.0001696460073387186	-0.06603396484818866	-0.08430400855696296	-0.03316588019773677	0.3412636747977975	-0.02124017695978231	0.09157206494630166	-0.2253500270704731	0.2668765996434707	0.2668765996434436	0.04057551395459018	-0.005118689020826701	0.005730929220310327	-0.02116008519445256	0.06399265817225776	-0.04126255963758636	-0.01553396939122802	-0.2116877711090232	0.1239587294896639	-0.001946381101821485	0.002548913738613621	-3.285941067427941	-1.491021172317603	3.109240322752237	34.34319060495905	-616.4895698350366	-78.18263781017281	-23.18095854873023	-2.08280055449916	-2.590909836879427	-1.06819321206408	10.71364419216013	-0.6745301039137896	2.943812174143394	-6.997468635234275	8.46238700626634	8.462387006262453	1.25564364998794	-0.1126226494095191	0.2848179830328513	-0.6369690702033497	-5.861991156148502e-08	1.437872240431577e-07	2.271173927854466e-07	5.916719520312666e-08	-1.912372801315094e-07	-4.999413164857294e-08	-1.489208128196205e-08
0.04	-0.03828067591909502	0.05426980815548682	0.9194576902485643	0.3177435446407172	-0.2961255278825315	-0.2972060783225819	-0.394026842265264	0.2570835090919819	0.2570835090919754	-0.1734502382155899	-0.1727639114720855	-0.0006662204609608285	-7.279627520761672e-05	-0.08697775832704555	-0.1096584070473824	-0.043883057188589	0.447458261851041	-0.02787544808624237	0.1204923033329243	-0.2936381329338971	0.3508298775553845	0.3508298775553495	0.05304125108272775	-0.006429498461964009	0.008928753859232526	-0.02728924750045602	0.06039375270907948	-0.0334435146812505	-0.01556848054449196	-0.2124295742743559	0.1307969047814511	-0.009172280323975367	0.006530662314108353	-1.274548008033279	1.265664855624641	2.703263898361608	31.64413731693403	-616.3054022422534	-71.59612376077501	-23.21661599045431	-2.143681960152088	-2.482143145429832	-1.082244516002885	10.5998521882321	-0.6459364538296011	2.823147861311942	-6.6199595920778	8.375909031873945	8.375909031877622	1.26809761360015	-0.1770707042955116	0.3703493311831778	-0.5764501057881136	-8.094616571428936e-08	9.666249201666902e-08	2.92019036290389e-07	7.556542473203852e-08	-2.916010178427533e-07	-9.25936629610193e-08	-2.731089294370625e-08
